<mxfile host="app.diagrams.net" agent="Mozilla/5.0 (Windows NT 10.0; Win64; x64) AppleWebKit/537.36 (KHTML, like Gecko) Chrome/128.0.0.0 Safari/537.36" version="24.7.16">
  <diagram name="Pagina-1" id="5V7-iniqr0q50NZpV3o8">
    <mxGraphModel dx="336" dy="176" grid="1" gridSize="10" guides="1" tooltips="1" connect="1" arrows="1" fold="1" page="1" pageScale="1" pageWidth="827" pageHeight="1169" math="0" shadow="0">
      <root>
        <mxCell id="0" />
        <mxCell id="1" parent="0" />
        <mxCell id="jmroAgwHRfn8l_BjhVIT-17" value="" style="rounded=1;whiteSpace=wrap;html=1;arcSize=5;" vertex="1" parent="1">
          <mxGeometry x="360" y="400" width="120" height="140" as="geometry" />
        </mxCell>
        <mxCell id="jmroAgwHRfn8l_BjhVIT-5" value="" style="rounded=1;whiteSpace=wrap;html=1;" vertex="1" parent="1">
          <mxGeometry x="400" y="500" width="80" height="40" as="geometry" />
        </mxCell>
        <mxCell id="jmroAgwHRfn8l_BjhVIT-6" value="" style="rounded=1;whiteSpace=wrap;html=1;" vertex="1" parent="1">
          <mxGeometry x="385" y="400" width="55" height="20" as="geometry" />
        </mxCell>
        <mxCell id="jmroAgwHRfn8l_BjhVIT-7" value="" style="rounded=1;whiteSpace=wrap;html=1;" vertex="1" parent="1">
          <mxGeometry x="375" y="400" width="10" height="20" as="geometry" />
        </mxCell>
        <mxCell id="jmroAgwHRfn8l_BjhVIT-8" value="" style="rounded=1;whiteSpace=wrap;html=1;" vertex="1" parent="1">
          <mxGeometry x="390" y="515" width="10" height="25" as="geometry" />
        </mxCell>
        <mxCell id="jmroAgwHRfn8l_BjhVIT-9" value="" style="rounded=1;whiteSpace=wrap;html=1;" vertex="1" parent="1">
          <mxGeometry x="360" y="520" width="15" height="20" as="geometry" />
        </mxCell>
        <mxCell id="jmroAgwHRfn8l_BjhVIT-10" value="" style="rounded=1;whiteSpace=wrap;html=1;" vertex="1" parent="1">
          <mxGeometry x="360" y="505" width="15" height="10" as="geometry" />
        </mxCell>
        <mxCell id="jmroAgwHRfn8l_BjhVIT-18" value="" style="rounded=1;whiteSpace=wrap;html=1;" vertex="1" parent="1">
          <mxGeometry x="464" y="440" width="16" height="60" as="geometry" />
        </mxCell>
      </root>
    </mxGraphModel>
  </diagram>
</mxfile>
